<svg width="508.8" height="104.4" viewBox="0 0 508.8 104.4" xmlns="http://www.w3.org/2000/svg"><g id="svgGroup" stroke-linecap="round" fill-rule="evenodd" font-size="9pt" stroke="#831ae6" stroke-width="0.25mm" fill="#831ae6" style="stroke:#831ae6;stroke-width:0.25mm;fill:#831ae6"><path d="M 224.6 33.5 L 224.1 14.6 A 33.043 33.043 0 0 0 224.003 11.973 Q 223.788 9.288 223.1 7.5 Q 222.1 4.9 222.1 4.7 A 1.704 1.704 0 0 1 222.751 3.43 Q 223.938 2.361 227.287 1.612 A 36.242 36.242 0 0 1 228.85 1.3 Q 234.389 0.315 237.773 0.139 A 26.521 26.521 0 0 1 239.15 0.1 A 11.222 11.222 0 0 1 240.413 0.165 Q 241.673 0.308 242.326 0.77 A 1.56 1.56 0 0 1 243 1.8 Q 249.196 29.433 253.457 40.433 A 63.917 63.917 0 0 0 253.6 40.8 A 5.106 5.106 0 0 0 253.805 41.238 Q 254.194 41.965 254.61 41.999 A 0.503 0.503 0 0 0 254.65 42 A 0.709 0.709 0 0 0 255.11 41.822 Q 255.378 41.599 255.6 41.1 Q 262.3 22.2 267.4 3.7 Q 267.8 2.5 269.4 1.85 Q 271 1.2 274.95 0.6 Q 278.9 0 282.8 0 A 14.528 14.528 0 0 1 284.026 0.047 Q 286.7 0.275 286.7 1.6 A 0.402 0.402 0 0 1 286.696 1.646 Q 286.663 1.881 286.4 3.15 Q 286.1 4.6 285.8 6.7 A 400.283 400.283 0 0 0 285.561 8.402 Q 285.35 9.925 285.1 11.8 A 127.292 127.292 0 0 0 284.437 18.23 Q 284.177 21.519 284.033 25.173 A 216.098 216.098 0 0 0 283.95 27.65 Q 283.7 36.6 283.7 45.6 L 283.9 56.1 Q 283.9 63.3 284.85 66.35 Q 285.8 69.4 285.8 69.85 Q 285.8 70.3 285.1 70.9 Q 282.874 72.695 278.999 73.201 A 25.538 25.538 0 0 1 275.7 73.4 A 8.895 8.895 0 0 1 274.143 73.275 Q 273.346 73.133 272.76 72.828 A 2.864 2.864 0 0 1 271.2 70.7 A 9.393 9.393 0 0 1 271.069 69.897 Q 270.9 68.538 270.9 66.25 A 81.46 81.46 0 0 1 270.921 64.662 Q 271.013 60.256 271.5 47.5 Q 272.078 32.387 272.099 25.196 A 182.055 182.055 0 0 0 272.1 24.65 Q 272.1 17.5 271.3 17.5 A 0.3 0.3 0 0 0 271.267 17.502 Q 271.233 17.506 271.217 17.518 A 0.038 0.038 0 0 0 271.2 17.55 A 0.036 0.036 0 0 1 271.186 17.574 Q 271.142 17.615 270.959 17.68 A 3.624 3.624 0 0 1 270.9 17.7 Q 270.646 17.785 269.711 19.949 A 70.761 70.761 0 0 0 269.35 20.8 Q 268.181 23.607 264.866 34.12 A 964.074 964.074 0 0 0 264.4 35.6 Q 260.7 47.4 257.7 57.65 A 3019.128 3019.128 0 0 1 256.992 60.065 Q 254.813 67.489 254.443 68.58 A 4.221 4.221 0 0 1 254.4 68.7 A 4.534 4.534 0 0 1 253.394 70.251 Q 252.223 71.4 250.2 71.4 A 3.299 3.299 0 0 1 249.041 71.204 A 2.891 2.891 0 0 1 247.8 70.3 Q 244.6 55.5 236.4 28 L 233.6 18.9 Q 233.43 18.475 233.26 18.411 A 0.17 0.17 0 0 0 233.2 18.4 Q 232.764 18.4 232.556 18.933 A 1.885 1.885 0 0 0 232.5 19.1 Q 232.1 25.6 232.1 44.65 A 417.622 417.622 0 0 0 232.149 51.3 Q 232.314 61.56 233.025 66.332 A 19.883 19.883 0 0 0 233.5 68.7 A 0.746 0.746 0 0 1 233.553 68.845 Q 233.6 69.025 233.6 69.3 A 2.429 2.429 0 0 1 232.641 71.23 Q 231.821 71.912 230.3 72.35 Q 227.351 73.199 224.92 73.289 A 15.378 15.378 0 0 1 224.35 73.3 A 8.836 8.836 0 0 1 223.483 73.261 Q 222.632 73.177 222.187 72.909 A 0.904 0.904 0 0 1 221.7 72.1 A 0.259 0.259 0 0 1 221.708 72.053 Q 221.755 71.847 222.082 70.857 A 131.441 131.441 0 0 1 222.2 70.5 A 34.361 34.361 0 0 0 223.017 66.965 Q 223.837 62.445 224.15 55.7 Q 224.537 47.364 224.591 36.96 A 662.12 662.12 0 0 0 224.6 33.5 Z M 33.5 17 L 33.9 13.9 Q 33.9 9.3 30.3 8 Q 28.013 7.265 26.593 7.13 A 6.306 6.306 0 0 0 26 7.1 L 25.9 7.1 Q 23.032 7.1 20.895 7.968 A 9.754 9.754 0 0 0 20.7 8.05 A 10.597 10.597 0 0 0 19.33 8.756 Q 18.157 9.481 17.5 10.4 A 13.351 13.351 0 0 0 15.742 13.662 A 11.365 11.365 0 0 0 15.1 16.5 Q 15.1 20.3 18.5 23.05 A 30.269 30.269 0 0 0 22.751 25.904 A 40.173 40.173 0 0 0 26.75 27.85 Q 31.6 29.9 36.45 32.3 Q 41.3 34.7 44.7 39.2 A 16.772 16.772 0 0 1 47.981 47.701 A 21.62 21.62 0 0 1 48.1 50 A 30.944 30.944 0 0 1 47.305 57.244 A 19.54 19.54 0 0 1 40.35 68.4 Q 32.6 74.5 22.75 74.5 A 35.899 35.899 0 0 1 15.574 73.821 Q 11.03 72.894 7.453 70.702 A 22.071 22.071 0 0 1 6.45 70.05 Q 0.062 65.643 0.001 58.244 A 17.337 17.337 0 0 1 0 58.1 L 0 58 A 20.189 20.189 0 0 1 0.22 54.944 Q 0.503 53.097 1.15 51.55 Q 1.97 49.59 3.019 48.366 A 6.874 6.874 0 0 1 3.9 47.5 Q 5.963 45.812 7.791 45.101 A 7.318 7.318 0 0 1 9.9 44.6 L 11.1 44.5 Q 13.9 44.5 16.2 45.85 A 5.369 5.369 0 0 1 17.459 46.846 A 3.938 3.938 0 0 1 18.5 49.6 A 2.043 2.043 0 0 1 17.886 51.061 Q 17.607 51.35 17.2 51.6 A 6.023 6.023 0 0 0 15.814 52.792 A 8.267 8.267 0 0 0 14.95 54 A 11.772 11.772 0 0 0 14.461 54.906 Q 13.971 55.927 13.9 56.7 L 13.7 57.8 A 10.084 10.084 0 0 0 14.192 61.056 Q 15.36 64.493 19.3 65.9 A 18.279 18.279 0 0 0 20.417 66.254 Q 21.503 66.557 22.285 66.595 A 4.487 4.487 0 0 0 22.5 66.6 A 14.877 14.877 0 0 0 26.433 66.107 A 11.024 11.024 0 0 0 31.35 63.3 Q 34.7 60 34.7 54.9 Q 34.7 48.8 29.5 45 Q 25.6 42.2 21.05 40.3 A 315.986 315.986 0 0 1 19.079 39.47 Q 16.125 38.213 14.9 37.6 A 41.352 41.352 0 0 1 13.037 36.605 A 52.909 52.909 0 0 1 11.5 35.7 A 19.652 19.652 0 0 1 10.094 34.749 Q 8.875 33.85 7.5 32.6 A 13.795 13.795 0 0 1 2.817 23.412 A 19.403 19.403 0 0 1 2.7 21.25 A 21.71 21.71 0 0 1 3.474 15.328 A 17.278 17.278 0 0 1 6.6 9.2 A 22.488 22.488 0 0 1 19.719 1.126 A 35.369 35.369 0 0 1 27.6 0.3 A 31.965 31.965 0 0 1 33.233 0.77 Q 36.532 1.361 39.233 2.694 A 19.184 19.184 0 0 1 40.1 3.15 A 12.222 12.222 0 0 1 42.679 5.032 A 8.013 8.013 0 0 1 45.2 11 A 10.408 10.408 0 0 1 44.815 13.896 A 8.239 8.239 0 0 1 43.15 17 A 6.544 6.544 0 0 1 38.393 19.385 A 8.191 8.191 0 0 1 37.9 19.4 Q 36.4 19.4 34.95 18.8 Q 33.5 18.2 33.5 17 Z M 470 59.9 L 470.3 80.9 A 32.303 32.303 0 0 1 469.409 88.681 A 23.888 23.888 0 0 1 465.1 97.7 A 13.06 13.06 0 0 1 462.851 99.929 Q 461.675 100.854 460.178 101.675 A 25.97 25.97 0 0 1 458.75 102.4 A 20.485 20.485 0 0 1 453.352 104.044 A 27.818 27.818 0 0 1 448.8 104.4 A 5.284 5.284 0 0 1 448.27 104.031 Q 447.733 103.602 447.571 103.173 A 1.046 1.046 0 0 1 447.5 102.8 A 1.117 1.117 0 0 1 447.839 102.005 Q 448 101.837 448.238 101.691 A 3.286 3.286 0 0 1 448.6 101.5 A 12.544 12.544 0 0 0 453.424 97.441 Q 456.062 93.88 457.578 87.841 A 45.976 45.976 0 0 0 457.6 87.75 A 67.61 67.61 0 0 0 458.905 80.757 Q 460.3 70.684 460.3 54.8 L 460.1 40.8 L 459.8 34 Q 459.8 33.1 457 32.7 A 9.094 9.094 0 0 0 453.735 33.269 A 8.233 8.233 0 0 0 450.95 35.05 A 11.437 11.437 0 0 0 448.229 39.177 A 14.86 14.86 0 0 0 447.6 41.2 Q 446.375 45.87 446.088 49.574 A 28.188 28.188 0 0 0 446 51.75 A 23.281 23.281 0 0 0 446.319 55.691 A 17.465 17.465 0 0 0 447.45 59.6 A 6.339 6.339 0 0 0 448.566 61.393 Q 449.84 62.796 451.888 62.974 A 7.064 7.064 0 0 0 452.5 63 A 4.376 4.376 0 0 0 453.971 62.756 A 4.113 4.113 0 0 0 454.35 62.6 Q 455.095 62.249 455.418 62.206 A 0.625 0.625 0 0 1 455.5 62.2 A 0.799 0.799 0 0 1 456.246 62.692 Q 456.444 63.081 456.488 63.776 A 6.733 6.733 0 0 1 456.5 64.2 A 22.252 22.252 0 0 1 456.471 65.377 Q 456.439 65.984 456.371 66.502 A 9.159 9.159 0 0 1 456.2 67.45 A 7.677 7.677 0 0 1 455.827 68.581 Q 455.609 69.11 455.3 69.677 A 14.642 14.642 0 0 1 455 70.2 Q 453.398 72.844 449.355 73.37 A 16.751 16.751 0 0 1 447.2 73.5 A 12.506 12.506 0 0 1 443.972 73.11 A 8.116 8.116 0 0 1 438.9 69.3 Q 436.3 65 435.9 61.6 Q 435.386 57.23 435.313 55.429 A 13.149 13.149 0 0 1 435.3 54.9 Q 435.3 53.675 435.33 52.831 A 27.052 27.052 0 0 1 435.35 52.35 A 10.91 10.91 0 0 1 435.391 51.844 Q 435.474 51.027 435.699 49.53 A 139.185 139.185 0 0 1 435.85 48.55 A 44.11 44.11 0 0 1 436.694 44.444 A 39.055 39.055 0 0 1 437.05 43.15 A 26.658 26.658 0 0 1 437.869 40.804 Q 438.342 39.617 438.967 38.324 A 48.59 48.59 0 0 1 439.4 37.45 A 23.232 23.232 0 0 1 441.635 33.864 A 19.605 19.605 0 0 1 443.2 32.05 A 15.333 15.333 0 0 1 445.933 29.857 Q 447.313 28.977 449 28.25 Q 452.6 26.7 455.9 26.7 A 15.681 15.681 0 0 1 460.696 27.475 A 19.225 19.225 0 0 1 462.6 28.2 A 1.275 1.275 0 0 0 462.825 28.182 Q 463.061 28.139 463.2 28 Q 465.8 25.4 470.8 25.4 Q 472 25.4 472 26.5 Q 472 26.6 471.8 27.4 A 22.093 22.093 0 0 0 471.694 27.847 Q 471.525 28.588 471.3 29.75 A 27.816 27.816 0 0 0 471.089 31.004 Q 470.987 31.705 470.9 32.505 A 55.544 55.544 0 0 0 470.8 33.5 Q 470.1 39.2 470.05 46.1 Q 470 53 470 59.9 Z M 430.5 42.4 L 430.3 55.2 Q 430.3 66.218 432.29 69.961 A 4.67 4.67 0 0 0 433.2 71.2 A 1.474 1.474 0 0 1 433.459 71.542 A 1.16 1.16 0 0 1 433.6 72.1 A 0.851 0.851 0 0 1 433.108 72.815 Q 431.911 73.543 427.809 73.596 A 51.214 51.214 0 0 1 427.15 73.6 A 16.398 16.398 0 0 1 424.82 73.449 Q 422.223 73.074 421.109 71.767 A 3.522 3.522 0 0 1 420.3 69.8 A 9.722 9.722 0 0 1 420.261 69.315 Q 420.2 68.288 420.2 66.1 L 420.6 50.1 Q 420.6 49.4 419.8 49.4 Q 415 49.4 410.8 52.1 A 11.073 11.073 0 0 0 408.585 53.934 A 7.289 7.289 0 0 0 406.6 59 A 6.683 6.683 0 0 0 406.83 60.791 A 5.28 5.28 0 0 0 407.8 62.7 Q 409 64.2 410.75 64.2 A 7.244 7.244 0 0 0 411.978 64.102 Q 412.692 63.979 413.275 63.702 A 4.108 4.108 0 0 0 413.65 63.5 A 152.561 152.561 0 0 1 414.048 63.259 Q 414.731 62.846 414.945 62.729 A 1.827 1.827 0 0 1 415 62.7 Q 416.502 62.877 416.677 65.512 A 11.16 11.16 0 0 1 416.7 66.25 A 5.974 5.974 0 0 1 414.574 70.907 A 8.726 8.726 0 0 1 413.6 71.65 A 12.478 12.478 0 0 1 410.043 73.301 A 10.977 10.977 0 0 1 407.1 73.7 Q 403.821 73.7 401.425 72.584 A 10.017 10.017 0 0 1 401.25 72.5 A 14.058 14.058 0 0 1 399.741 71.65 Q 399.007 71.17 398.456 70.649 A 6.305 6.305 0 0 1 397.7 69.8 A 13.412 13.412 0 0 1 396.177 67.099 A 15.461 15.461 0 0 1 395.9 66.4 A 19.396 19.396 0 0 1 395.474 64.759 Q 395.2 63.463 395.2 62.4 A 18.021 18.021 0 0 1 395.858 57.405 A 13.631 13.631 0 0 1 399.6 51.2 A 23.21 23.21 0 0 1 406.452 46.721 A 30.399 30.399 0 0 1 410.9 45.2 A 96.123 96.123 0 0 0 413.771 44.59 Q 420.069 43.142 420.4 41.9 A 5.796 5.796 0 0 0 420.532 41.256 Q 420.645 40.513 420.682 39.389 A 36.097 36.097 0 0 0 420.7 38.2 Q 420.7 33.992 417.296 33.125 A 8.105 8.105 0 0 0 415.3 32.9 Q 413 32.9 411.2 34.35 A 5.025 5.025 0 0 0 410.002 35.707 A 4.432 4.432 0 0 0 409.4 38 L 410 40.4 A 1.686 1.686 0 0 1 409.188 41.637 Q 408.286 42.234 406.4 42.4 L 405.3 42.5 A 9.738 9.738 0 0 1 403.385 42.323 Q 401.699 41.984 400.55 41 A 4.916 4.916 0 0 1 398.813 37.422 A 6.791 6.791 0 0 1 398.8 37 A 5.787 5.787 0 0 1 399.001 35.533 Q 399.175 34.871 399.498 34.158 A 11.691 11.691 0 0 1 399.85 33.45 A 10.117 10.117 0 0 1 401.334 31.352 A 8.752 8.752 0 0 1 402.5 30.3 A 8.559 8.559 0 0 1 403.671 29.575 Q 404.94 28.912 406.819 28.336 A 31.556 31.556 0 0 1 407.45 28.15 A 25.255 25.255 0 0 1 411.54 27.334 A 21.28 21.28 0 0 1 413.9 27.2 Q 416.455 27.2 418.059 27.336 A 19.819 19.819 0 0 1 418.7 27.4 A 20.425 20.425 0 0 1 419.869 27.576 Q 421.108 27.796 422.788 28.209 A 77.138 77.138 0 0 1 423.35 28.35 A 10.173 10.173 0 0 1 426.827 29.942 A 9.577 9.577 0 0 1 428.25 31.2 A 9.024 9.024 0 0 1 429.499 32.879 A 6.389 6.389 0 0 1 430.35 35.65 Q 430.465 37.449 430.492 40.45 A 217.947 217.947 0 0 1 430.5 42.4 Z M 358.9 58.7 Q 358.9 63 357.25 66.2 A 18.074 18.074 0 0 1 356.006 68.281 Q 355.281 69.317 354.483 70.081 A 8.904 8.904 0 0 1 353.5 70.9 Q 351.4 72.4 348.5 73.3 A 28.704 28.704 0 0 1 345.309 74.12 Q 343.712 74.429 342.262 74.487 A 16.607 16.607 0 0 1 341.6 74.5 A 27.495 27.495 0 0 1 337.035 74.142 Q 333.488 73.544 330.8 71.95 A 8.336 8.336 0 0 1 326.678 65.949 A 12.438 12.438 0 0 1 326.5 63.8 A 9.92 9.92 0 0 1 326.775 61.405 A 7.217 7.217 0 0 1 328.3 58.4 A 9.797 9.797 0 0 1 330.935 56.295 A 8.471 8.471 0 0 1 335 55.3 Q 336.2 55.3 336.2 56.4 Q 336.2 56.487 335.857 57.605 A 129.338 129.338 0 0 1 335.75 57.95 Q 335.3 59.4 335.3 61.6 A 5.136 5.136 0 0 0 336.593 65.012 A 6.994 6.994 0 0 0 337.05 65.5 Q 338.8 67.2 341.3 67.2 A 11.974 11.974 0 0 0 342.884 67.102 Q 343.686 66.995 344.35 66.77 A 5.481 5.481 0 0 0 345.3 66.35 Q 346.8 65.5 347.4 64.2 A 9.473 9.473 0 0 0 347.999 62.717 Q 348.27 61.826 348.297 60.989 A 5.754 5.754 0 0 0 348.3 60.8 Q 348.3 57.9 345.4 55.8 Q 342.5 53.7 339 52.5 A 16.826 16.826 0 0 1 333.521 49.336 A 19.954 19.954 0 0 1 332.6 48.5 A 9.287 9.287 0 0 1 329.703 41.761 A 11.979 11.979 0 0 1 329.7 41.5 A 18.053 18.053 0 0 1 330.179 37.21 A 11.519 11.519 0 0 1 334.25 30.7 A 15.636 15.636 0 0 1 339.807 27.945 Q 342.068 27.311 344.759 27.153 A 31.346 31.346 0 0 1 346.6 27.1 A 27.243 27.243 0 0 1 351.213 27.509 A 33.259 33.259 0 0 1 353.75 28.05 A 10.383 10.383 0 0 1 355.165 28.509 Q 357.5 29.475 357.5 31.25 A 11.805 11.805 0 0 1 357.177 34.052 A 10.315 10.315 0 0 1 356.75 35.4 A 6.223 6.223 0 0 1 356.406 36.139 Q 355.76 37.3 354.9 37.3 A 1.227 1.227 0 0 1 354.602 37.266 A 0.709 0.709 0 0 1 354.1 36.85 A 2.967 2.967 0 0 0 353.927 36.523 Q 353.728 36.194 353.4 35.8 A 2.41 2.41 0 0 0 353.069 35.484 Q 352.433 34.966 351 34.25 A 12.158 12.158 0 0 0 349.866 33.749 Q 349.291 33.532 348.777 33.419 A 4.832 4.832 0 0 0 347.75 33.3 Q 346.4 33.3 345.95 33.35 Q 345.5 33.4 344.4 33.65 A 7.835 7.835 0 0 0 342.93 34.135 A 6.889 6.889 0 0 0 342.4 34.4 A 5.012 5.012 0 0 0 341.094 35.432 Q 340.147 36.504 340.102 38.047 A 5.317 5.317 0 0 0 340.1 38.2 A 5.795 5.795 0 0 0 340.159 39.054 Q 340.303 40.017 340.8 40.55 Q 341.336 41.124 341.696 41.493 A 23.739 23.739 0 0 0 341.9 41.7 A 2.93 2.93 0 0 0 342.173 41.937 Q 342.482 42.177 342.968 42.462 A 14.338 14.338 0 0 0 343.3 42.65 Q 344.124 43.103 344.54 43.318 A 13.097 13.097 0 0 0 344.7 43.4 A 18.031 18.031 0 0 0 344.923 43.509 Q 345.293 43.688 346.021 44.027 A 300.073 300.073 0 0 0 346.5 44.25 A 287.998 287.998 0 0 1 347.065 44.513 Q 347.771 44.843 348.12 45.012 A 16.275 16.275 0 0 1 348.3 45.1 Q 358.9 50.1 358.9 58.7 Z M 393.1 58.7 Q 393.1 63 391.45 66.2 A 18.074 18.074 0 0 1 390.206 68.281 Q 389.481 69.317 388.683 70.081 A 8.904 8.904 0 0 1 387.7 70.9 Q 385.6 72.4 382.7 73.3 A 28.704 28.704 0 0 1 379.509 74.12 Q 377.912 74.429 376.462 74.487 A 16.607 16.607 0 0 1 375.8 74.5 A 27.495 27.495 0 0 1 371.235 74.142 Q 367.688 73.544 365 71.95 A 8.336 8.336 0 0 1 360.878 65.949 A 12.438 12.438 0 0 1 360.7 63.8 A 9.92 9.92 0 0 1 360.975 61.405 A 7.217 7.217 0 0 1 362.5 58.4 A 9.797 9.797 0 0 1 365.135 56.295 A 8.471 8.471 0 0 1 369.2 55.3 Q 370.4 55.3 370.4 56.4 Q 370.4 56.487 370.057 57.605 A 129.338 129.338 0 0 1 369.95 57.95 Q 369.5 59.4 369.5 61.6 A 5.136 5.136 0 0 0 370.793 65.012 A 6.994 6.994 0 0 0 371.25 65.5 Q 373 67.2 375.5 67.2 A 11.974 11.974 0 0 0 377.084 67.102 Q 377.886 66.995 378.55 66.77 A 5.481 5.481 0 0 0 379.5 66.35 Q 381 65.5 381.6 64.2 A 9.473 9.473 0 0 0 382.199 62.717 Q 382.47 61.826 382.497 60.989 A 5.754 5.754 0 0 0 382.5 60.8 Q 382.5 57.9 379.6 55.8 Q 376.7 53.7 373.2 52.5 A 16.826 16.826 0 0 1 367.721 49.336 A 19.954 19.954 0 0 1 366.8 48.5 A 9.287 9.287 0 0 1 363.903 41.761 A 11.979 11.979 0 0 1 363.9 41.5 A 18.053 18.053 0 0 1 364.379 37.21 A 11.519 11.519 0 0 1 368.45 30.7 A 15.636 15.636 0 0 1 374.007 27.945 Q 376.268 27.311 378.959 27.153 A 31.346 31.346 0 0 1 380.8 27.1 A 27.243 27.243 0 0 1 385.413 27.509 A 33.259 33.259 0 0 1 387.95 28.05 A 10.383 10.383 0 0 1 389.365 28.509 Q 391.7 29.475 391.7 31.25 A 11.805 11.805 0 0 1 391.377 34.052 A 10.315 10.315 0 0 1 390.95 35.4 A 6.223 6.223 0 0 1 390.606 36.139 Q 389.96 37.3 389.1 37.3 A 1.227 1.227 0 0 1 388.802 37.266 A 0.709 0.709 0 0 1 388.3 36.85 A 2.967 2.967 0 0 0 388.127 36.523 Q 387.928 36.194 387.6 35.8 A 2.41 2.41 0 0 0 387.269 35.484 Q 386.633 34.966 385.2 34.25 A 12.158 12.158 0 0 0 384.066 33.749 Q 383.491 33.532 382.977 33.419 A 4.832 4.832 0 0 0 381.95 33.3 Q 380.6 33.3 380.15 33.35 Q 379.7 33.4 378.6 33.65 A 7.835 7.835 0 0 0 377.13 34.135 A 6.889 6.889 0 0 0 376.6 34.4 A 5.012 5.012 0 0 0 375.294 35.432 Q 374.347 36.504 374.302 38.047 A 5.317 5.317 0 0 0 374.3 38.2 A 5.795 5.795 0 0 0 374.359 39.054 Q 374.503 40.017 375 40.55 Q 375.536 41.124 375.896 41.493 A 23.739 23.739 0 0 0 376.1 41.7 A 2.93 2.93 0 0 0 376.373 41.937 Q 376.682 42.177 377.168 42.462 A 14.338 14.338 0 0 0 377.5 42.65 Q 378.324 43.103 378.74 43.318 A 13.097 13.097 0 0 0 378.9 43.4 A 18.031 18.031 0 0 0 379.123 43.509 Q 379.493 43.688 380.221 44.027 A 300.073 300.073 0 0 0 380.7 44.25 A 287.998 287.998 0 0 1 381.265 44.513 Q 381.971 44.843 382.32 45.012 A 16.275 16.275 0 0 1 382.5 45.1 Q 393.1 50.1 393.1 58.7 Z M 118.463 69.63 A 11.598 11.598 0 0 0 122.2 60.9 Q 122.2 59.6 121.75 57.95 Q 121.3 56.3 120.4 56.3 Q 119.95 56.3 119.612 56.751 A 2.291 2.291 0 0 0 119.4 57.1 A 12.59 12.59 0 0 1 118.909 58.181 A 10.313 10.313 0 0 1 117.3 60.5 A 13.132 13.132 0 0 1 116.171 61.6 A 9.372 9.372 0 0 1 109.9 64 A 11.763 11.763 0 0 1 107.825 63.824 A 8.596 8.596 0 0 1 104.05 62.2 Q 101.7 60.4 100.85 57.55 Q 100.263 55.58 99.962 54.183 A 18.81 18.81 0 0 1 99.75 53.05 A 14.595 14.595 0 0 1 99.667 52.392 Q 99.5 50.805 99.5 48.15 A 23.531 23.531 0 0 1 99.635 45.664 A 28.226 28.226 0 0 1 100.45 41.35 Q 101.111 38.882 101.844 37.332 A 9.327 9.327 0 0 1 102.5 36.15 Q 103.6 34.5 105.25 33.45 Q 106.9 32.4 108.1 32.4 Q 112.9 32.4 112.9 36.3 A 6.715 6.715 0 0 1 112.896 36.544 Q 112.819 38.649 111.4 39.5 Q 109.8 40.2 109.7 41.3 A 5.637 5.637 0 0 0 109.745 42.026 A 3.931 3.931 0 0 0 111.1 44.6 A 12.899 12.899 0 0 0 111.632 45.034 Q 112.668 45.83 113.35 45.95 Q 114.2 46.1 115.55 46.1 A 4.337 4.337 0 0 0 116.149 46.058 Q 117.248 45.904 118.5 45.2 A 10.217 10.217 0 0 0 118.886 44.957 Q 121.104 43.488 121.961 41.202 A 9.062 9.062 0 0 0 122.5 38 Q 122.5 34.9 121.1 32.6 A 10.904 10.904 0 0 0 118.781 29.877 Q 116.733 28.16 113.789 27.468 A 19.182 19.182 0 0 0 109.4 27 A 23.222 23.222 0 0 0 105.784 27.272 A 17.774 17.774 0 0 0 99.8 29.3 Q 95.7 31.6 93.5 35.6 A 32.461 32.461 0 0 0 90.27 43.418 A 38.642 38.642 0 0 0 89 53.5 Q 89 63 93.3 68.55 Q 96.29 72.409 101.649 73.585 A 24.052 24.052 0 0 0 106.8 74.1 Q 113.1 74.1 117.65 70.35 A 14.999 14.999 0 0 0 118.463 69.63 Z M 158.5 38 L 158 45.6 L 158.4 49.1 A 1.548 1.548 0 0 1 157.414 50.569 Q 156.676 50.923 155.386 50.986 A 11.983 11.983 0 0 1 154.8 51 A 14.242 14.242 0 0 1 152.159 50.778 Q 147.809 49.952 147.521 46.067 A 7.663 7.663 0 0 1 147.5 45.5 A 6.774 6.774 0 0 1 147.565 44.615 Q 147.689 43.681 148.051 42.407 A 28.107 28.107 0 0 1 148.2 41.9 A 19.396 19.396 0 0 0 148.627 40.259 Q 148.9 38.963 148.9 37.9 Q 148.9 36.2 147.9 34.95 Q 146.9 33.7 145 33.7 A 4.424 4.424 0 0 0 141.793 35.008 A 5.392 5.392 0 0 0 141.75 35.05 A 7.667 7.667 0 0 0 140.9 36.048 Q 140.481 36.644 140.26 37.248 A 4.13 4.13 0 0 0 140.1 37.8 L 139.7 39.2 Q 139.248 41.537 139.137 46.233 A 140.562 140.562 0 0 0 139.1 49.55 Q 139.1 55.101 139.217 58.834 A 126.894 126.894 0 0 0 139.3 60.95 Q 139.474 64.547 139.647 66.191 A 20.03 20.03 0 0 0 139.7 66.65 A 100.246 100.246 0 0 1 139.768 67.187 Q 139.883 68.114 139.898 68.421 A 1.645 1.645 0 0 1 139.9 68.5 A 3.748 3.748 0 0 1 138.704 71.239 Q 138.18 71.759 137.426 72.209 A 9.641 9.641 0 0 1 136.8 72.55 A 14.928 14.928 0 0 1 133.313 73.803 A 12.66 12.66 0 0 1 130.6 74.1 A 11.155 11.155 0 0 1 129.586 74.058 Q 127.949 73.908 127.597 73.219 A 0.906 0.906 0 0 1 127.5 72.8 L 128 69.7 Q 128.941 63.855 129.25 55.617 A 230.877 230.877 0 0 0 129.4 47 A 309.445 309.445 0 0 0 129.345 40.932 Q 129.166 31.828 128.4 28 Q 128.4 26.8 130.5 26.8 A 12.127 12.127 0 0 1 133.115 27.061 Q 136.378 27.783 137.7 30.5 A 1.063 1.063 0 0 0 137.749 30.651 Q 137.853 30.9 138.05 30.9 A 0.371 0.371 0 0 0 138.187 30.863 Q 138.524 30.717 139.4 30 A 11.906 11.906 0 0 1 147.042 27.301 A 14.893 14.893 0 0 1 147.2 27.3 A 15.018 15.018 0 0 1 152.188 28.173 A 17.304 17.304 0 0 1 152.8 28.4 A 8.433 8.433 0 0 1 158.046 34.278 Q 158.5 35.94 158.5 38 Z M 83.637 63.758 A 15.743 15.743 0 0 0 84 60.3 A 2.254 2.254 0 0 0 83.987 60.064 Q 83.927 59.499 83.6 58.6 Q 83.385 58.007 83.096 57.734 A 0.777 0.777 0 0 0 82.55 57.5 Q 81.9 57.5 81.5 58.3 A 13.282 13.282 0 0 1 81.034 59.229 A 11.169 11.169 0 0 1 78.9 62 Q 75.9 64.8 71.6 64.8 A 10.927 10.927 0 0 1 69.435 64.597 A 7.102 7.102 0 0 1 65.1 62 Q 64.3 60.8 63.65 59.05 A 19.065 19.065 0 0 1 63.435 58.44 Q 63 57.136 63 56.4 A 1.002 1.002 0 0 1 63.015 56.222 Q 63.087 55.828 63.498 55.731 A 1.33 1.33 0 0 1 63.8 55.7 A 49.347 49.347 0 0 0 64.519 55.62 Q 69.869 54.988 73.9 53.3 A 39.969 39.969 0 0 0 74.078 53.225 Q 76.78 52.079 78.553 50.851 A 11.899 11.899 0 0 0 80.2 49.5 Q 82.2 47.5 83.4 45 A 34.707 34.707 0 0 0 83.909 43.893 Q 84.391 42.792 84.623 42.002 A 6.135 6.135 0 0 0 84.8 41.25 A 10.149 10.149 0 0 0 84.828 41.064 Q 84.942 40.255 84.981 39.106 A 37.706 37.706 0 0 0 85 37.85 Q 85 36.574 84.542 35.209 A 12.123 12.123 0 0 0 83.7 33.3 A 10.718 10.718 0 0 0 80.848 29.74 Q 78.85 28.136 75.988 27.471 A 19.851 19.851 0 0 0 71.5 27 A 22.79 22.79 0 0 0 68.243 27.225 A 15.955 15.955 0 0 0 56.65 34.6 A 29.858 29.858 0 0 0 53.538 40.866 A 32.699 32.699 0 0 0 51.7 51.95 Q 51.7 61.7 55.7 68 A 12.81 12.81 0 0 0 63.061 73.622 A 17.642 17.642 0 0 0 68.1 74.3 A 19.318 19.318 0 0 0 70.685 74.122 A 23.789 23.789 0 0 0 74.4 73.3 A 18.969 18.969 0 0 0 76.111 72.685 A 15.29 15.29 0 0 0 78.95 71.15 A 8.323 8.323 0 0 0 79.772 70.499 Q 80.539 69.81 81.238 68.868 A 16.229 16.229 0 0 0 82.45 66.95 A 12.28 12.28 0 0 0 83.637 63.758 Z M 193.937 63.758 A 15.743 15.743 0 0 0 194.3 60.3 A 2.254 2.254 0 0 0 194.287 60.064 Q 194.227 59.499 193.9 58.6 Q 193.685 58.007 193.396 57.734 A 0.777 0.777 0 0 0 192.85 57.5 Q 192.2 57.5 191.8 58.3 A 13.282 13.282 0 0 1 191.334 59.229 A 11.169 11.169 0 0 1 189.2 62 Q 186.2 64.8 181.9 64.8 A 10.927 10.927 0 0 1 179.735 64.597 A 7.102 7.102 0 0 1 175.4 62 Q 174.6 60.8 173.95 59.05 A 19.065 19.065 0 0 1 173.735 58.44 Q 173.3 57.136 173.3 56.4 A 1.002 1.002 0 0 1 173.315 56.222 Q 173.387 55.828 173.798 55.731 A 1.33 1.33 0 0 1 174.1 55.7 A 49.347 49.347 0 0 0 174.819 55.62 Q 180.169 54.988 184.2 53.3 A 39.969 39.969 0 0 0 184.378 53.225 Q 187.08 52.079 188.853 50.851 A 11.899 11.899 0 0 0 190.5 49.5 Q 192.5 47.5 193.7 45 A 34.707 34.707 0 0 0 194.209 43.893 Q 194.691 42.792 194.923 42.002 A 6.135 6.135 0 0 0 195.1 41.25 A 10.149 10.149 0 0 0 195.128 41.064 Q 195.242 40.255 195.281 39.106 A 37.706 37.706 0 0 0 195.3 37.85 Q 195.3 36.574 194.842 35.209 A 12.123 12.123 0 0 0 194 33.3 A 10.718 10.718 0 0 0 191.148 29.74 Q 189.15 28.136 186.288 27.471 A 19.851 19.851 0 0 0 181.8 27 A 22.79 22.79 0 0 0 178.543 27.225 A 15.955 15.955 0 0 0 166.95 34.6 A 29.858 29.858 0 0 0 163.838 40.866 A 32.699 32.699 0 0 0 162 51.95 Q 162 61.7 166 68 A 12.81 12.81 0 0 0 173.361 73.622 A 17.642 17.642 0 0 0 178.4 74.3 A 19.318 19.318 0 0 0 180.985 74.122 A 23.789 23.789 0 0 0 184.7 73.3 A 18.969 18.969 0 0 0 186.411 72.685 A 15.29 15.29 0 0 0 189.25 71.15 A 8.323 8.323 0 0 0 190.072 70.499 Q 190.839 69.81 191.538 68.868 A 16.229 16.229 0 0 0 192.75 66.95 A 12.28 12.28 0 0 0 193.937 63.758 Z M 322.637 63.758 A 15.743 15.743 0 0 0 323 60.3 A 2.254 2.254 0 0 0 322.987 60.064 Q 322.927 59.499 322.6 58.6 Q 322.385 58.007 322.096 57.734 A 0.777 0.777 0 0 0 321.55 57.5 Q 320.9 57.5 320.5 58.3 A 13.282 13.282 0 0 1 320.034 59.229 A 11.169 11.169 0 0 1 317.9 62 Q 314.9 64.8 310.6 64.8 A 10.927 10.927 0 0 1 308.435 64.597 A 7.102 7.102 0 0 1 304.1 62 Q 303.3 60.8 302.65 59.05 A 19.065 19.065 0 0 1 302.435 58.44 Q 302 57.136 302 56.4 A 1.002 1.002 0 0 1 302.015 56.222 Q 302.087 55.828 302.498 55.731 A 1.33 1.33 0 0 1 302.8 55.7 A 49.347 49.347 0 0 0 303.519 55.62 Q 308.869 54.988 312.9 53.3 A 39.969 39.969 0 0 0 313.078 53.225 Q 315.78 52.079 317.553 50.851 A 11.899 11.899 0 0 0 319.2 49.5 Q 321.2 47.5 322.4 45 A 34.707 34.707 0 0 0 322.909 43.893 Q 323.391 42.792 323.623 42.002 A 6.135 6.135 0 0 0 323.8 41.25 A 10.149 10.149 0 0 0 323.828 41.064 Q 323.942 40.255 323.981 39.106 A 37.706 37.706 0 0 0 324 37.85 Q 324 36.574 323.542 35.209 A 12.123 12.123 0 0 0 322.7 33.3 A 10.718 10.718 0 0 0 319.848 29.74 Q 317.85 28.136 314.988 27.471 A 19.851 19.851 0 0 0 310.5 27 A 22.79 22.79 0 0 0 307.243 27.225 A 15.955 15.955 0 0 0 295.65 34.6 A 29.858 29.858 0 0 0 292.538 40.866 A 32.699 32.699 0 0 0 290.7 51.95 Q 290.7 61.7 294.7 68 A 12.81 12.81 0 0 0 302.061 73.622 A 17.642 17.642 0 0 0 307.1 74.3 A 19.318 19.318 0 0 0 309.685 74.122 A 23.789 23.789 0 0 0 313.4 73.3 A 18.969 18.969 0 0 0 315.111 72.685 A 15.29 15.29 0 0 0 317.95 71.15 A 8.323 8.323 0 0 0 318.772 70.499 Q 319.539 69.81 320.238 68.868 A 16.229 16.229 0 0 0 321.45 66.95 A 12.28 12.28 0 0 0 322.637 63.758 Z M 507.437 63.758 A 15.743 15.743 0 0 0 507.8 60.3 A 2.254 2.254 0 0 0 507.787 60.064 Q 507.727 59.499 507.4 58.6 Q 507.185 58.007 506.896 57.734 A 0.777 0.777 0 0 0 506.35 57.5 Q 505.7 57.5 505.3 58.3 A 13.282 13.282 0 0 1 504.834 59.229 A 11.169 11.169 0 0 1 502.7 62 Q 499.7 64.8 495.4 64.8 A 10.927 10.927 0 0 1 493.235 64.597 A 7.102 7.102 0 0 1 488.9 62 Q 488.1 60.8 487.45 59.05 A 19.065 19.065 0 0 1 487.235 58.44 Q 486.8 57.136 486.8 56.4 A 1.002 1.002 0 0 1 486.815 56.222 Q 486.887 55.828 487.298 55.731 A 1.33 1.33 0 0 1 487.6 55.7 A 49.347 49.347 0 0 0 488.319 55.62 Q 493.669 54.988 497.7 53.3 A 39.969 39.969 0 0 0 497.878 53.225 Q 500.58 52.079 502.353 50.851 A 11.899 11.899 0 0 0 504 49.5 Q 506 47.5 507.2 45 A 34.707 34.707 0 0 0 507.709 43.893 Q 508.191 42.792 508.423 42.002 A 6.135 6.135 0 0 0 508.6 41.25 A 10.149 10.149 0 0 0 508.628 41.064 Q 508.742 40.255 508.781 39.106 A 37.706 37.706 0 0 0 508.8 37.85 Q 508.8 36.574 508.342 35.209 A 12.123 12.123 0 0 0 507.5 33.3 A 10.718 10.718 0 0 0 504.648 29.74 Q 502.65 28.136 499.788 27.471 A 19.851 19.851 0 0 0 495.3 27 A 22.79 22.79 0 0 0 492.043 27.225 A 15.955 15.955 0 0 0 480.45 34.6 A 29.858 29.858 0 0 0 477.338 40.866 A 32.699 32.699 0 0 0 475.5 51.95 Q 475.5 61.7 479.5 68 A 12.81 12.81 0 0 0 486.861 73.622 A 17.642 17.642 0 0 0 491.9 74.3 A 19.318 19.318 0 0 0 494.485 74.122 A 23.789 23.789 0 0 0 498.2 73.3 A 18.969 18.969 0 0 0 499.911 72.685 A 15.29 15.29 0 0 0 502.75 71.15 A 8.323 8.323 0 0 0 503.572 70.499 Q 504.339 69.81 505.038 68.868 A 16.229 16.229 0 0 0 506.25 66.95 A 12.28 12.28 0 0 0 507.437 63.758 Z M 198.3 33.4 L 198.6 29.4 Q 198.682 28.66 199.576 28.529 A 2.923 2.923 0 0 1 200 28.5 L 203.5 28.5 L 203.1 20.5 L 203.1 20.1 Q 203.1 17.8 206.6 15.7 Q 209.167 14.16 211.411 13.749 A 8.821 8.821 0 0 1 213 13.6 A 1.474 1.474 0 0 1 213.34 13.636 Q 213.9 13.769 213.9 14.4 L 213.9 14.5 Q 213.5 17.2 213.1 28.4 Q 217.5 28.4 218.7 28.2 Q 219.9 28 220 28 A 0.579 0.579 0 0 1 220.554 28.354 Q 220.683 28.617 220.698 29.074 A 3.791 3.791 0 0 1 220.7 29.2 Q 220.7 30.287 219.798 31.906 A 14.022 14.022 0 0 1 219.6 32.25 Q 218.589 33.951 217.409 34.173 A 1.93 1.93 0 0 1 217.2 34.2 L 213 34.2 A 156.059 156.059 0 0 0 212.957 36.191 Q 212.906 39.252 212.901 44.406 A 1209.274 1209.274 0 0 0 212.9 45.65 Q 212.9 53.299 213.036 58.375 A 242.863 242.863 0 0 0 213.05 58.9 Q 213.2 64.1 213.4 66.75 Q 213.6 69.4 213.85 71 Q 214.08 72.474 214.226 73.184 A 13.061 13.061 0 0 0 214.25 73.3 Q 214.37 73.86 214.394 74.1 A 1.037 1.037 0 0 1 214.4 74.2 A 1.097 1.097 0 0 1 214.292 74.703 Q 214.024 75.229 213.1 75.3 Q 209.2 75.3 205.35 74.2 A 9.417 9.417 0 0 1 203.85 73.642 Q 201.5 72.509 201.5 70.4 A 270.88 270.88 0 0 0 203.305 48.424 A 329.732 329.732 0 0 0 203.6 34.3 Q 201.377 34.3 200.036 34.436 A 13.139 13.139 0 0 0 199.5 34.5 L 199.4 34.5 A 1.077 1.077 0 0 1 198.896 34.387 Q 198.475 34.168 198.326 33.524 A 2.62 2.62 0 0 1 198.3 33.4 Z M 62.2 47 L 62.3 49.5 A 0.63 0.63 0 0 0 62.357 49.777 Q 62.513 50.1 63.1 50.1 A 15.756 15.756 0 0 0 66.188 49.512 A 12.437 12.437 0 0 0 68.7 48.45 A 14.11 14.11 0 0 0 70.392 47.342 Q 71.569 46.436 72.3 45.4 A 24.083 24.083 0 0 0 73.559 43.238 Q 74.739 40.922 74.895 39.071 A 6.975 6.975 0 0 0 74.9 39 L 75 37.8 Q 75 32.868 71.413 32.441 A 6.028 6.028 0 0 0 70.7 32.4 A 5.962 5.962 0 0 0 66.095 34.459 A 8.273 8.273 0 0 0 65.5 35.2 A 15.444 15.444 0 0 0 63 40.442 Q 62.402 42.623 62.251 45.211 A 30.786 30.786 0 0 0 62.2 47 Z M 172.5 47 L 172.6 49.5 A 0.63 0.63 0 0 0 172.657 49.777 Q 172.813 50.1 173.4 50.1 A 15.756 15.756 0 0 0 176.488 49.512 A 12.437 12.437 0 0 0 179 48.45 A 14.11 14.11 0 0 0 180.692 47.342 Q 181.869 46.436 182.6 45.4 A 24.083 24.083 0 0 0 183.859 43.238 Q 185.039 40.922 185.195 39.071 A 6.975 6.975 0 0 0 185.2 39 L 185.3 37.8 Q 185.3 32.868 181.713 32.441 A 6.028 6.028 0 0 0 181 32.4 A 5.962 5.962 0 0 0 176.395 34.459 A 8.273 8.273 0 0 0 175.8 35.2 A 15.444 15.444 0 0 0 173.3 40.442 Q 172.702 42.623 172.551 45.211 A 30.786 30.786 0 0 0 172.5 47 Z M 301.2 47 L 301.3 49.5 A 0.63 0.63 0 0 0 301.357 49.777 Q 301.513 50.1 302.1 50.1 A 15.756 15.756 0 0 0 305.188 49.512 A 12.437 12.437 0 0 0 307.7 48.45 A 14.11 14.11 0 0 0 309.392 47.342 Q 310.569 46.436 311.3 45.4 A 24.083 24.083 0 0 0 312.559 43.238 Q 313.739 40.922 313.895 39.071 A 6.975 6.975 0 0 0 313.9 39 L 314 37.8 Q 314 32.868 310.413 32.441 A 6.028 6.028 0 0 0 309.7 32.4 A 5.962 5.962 0 0 0 305.095 34.459 A 8.273 8.273 0 0 0 304.5 35.2 A 15.444 15.444 0 0 0 302 40.442 Q 301.402 42.623 301.251 45.211 A 30.786 30.786 0 0 0 301.2 47 Z M 486 47 L 486.1 49.5 A 0.63 0.63 0 0 0 486.157 49.777 Q 486.313 50.1 486.9 50.1 A 15.756 15.756 0 0 0 489.988 49.512 A 12.437 12.437 0 0 0 492.5 48.45 A 14.11 14.11 0 0 0 494.192 47.342 Q 495.369 46.436 496.1 45.4 A 24.083 24.083 0 0 0 497.359 43.238 Q 498.539 40.922 498.695 39.071 A 6.975 6.975 0 0 0 498.7 39 L 498.8 37.8 Q 498.8 32.868 495.213 32.441 A 6.028 6.028 0 0 0 494.5 32.4 A 5.962 5.962 0 0 0 489.895 34.459 A 8.273 8.273 0 0 0 489.3 35.2 A 15.444 15.444 0 0 0 486.8 40.442 Q 486.202 42.623 486.051 45.211 A 30.786 30.786 0 0 0 486 47 Z" vector-effect="non-scaling-stroke"/></g></svg>